<svg width="32" height="20" viewBox="0 0 32 20" fill="none" xmlns="http://www.w3.org/2000/svg">
<path d="M19.0714 0.0327821C18.0985 0.1226 17.1655 0.364608 16.2076 0.776273C16.0775 0.831161 14.5743 1.60958 12.8685 2.50526C11.1627 3.39845 7.62357 5.25468 5.00485 6.62939C2.38612 8.0041 0.237611 9.12432 0.232609 9.11684C0.217602 9.10187 0.0600281 9.25656 0.0275129 9.31893C0.00750352 9.35635 0 10.0524 0 11.7265C0 13.9221 0.00250117 14.0843 0.0450211 14.1591C0.100047 14.2564 5.1174 19.5856 5.20744 19.6405C5.24246 19.6629 5.30249 19.6804 5.3375 19.6804C5.37252 19.6804 5.40253 19.6954 5.40253 19.7103C5.40253 19.7353 5.40753 19.7353 5.42254 19.7128C5.43255 19.6979 5.58012 19.608 5.7527 19.5107C8.23386 18.131 14.4618 14.6905 14.4768 14.6905C14.4893 14.6905 15.1821 15.4141 16.0175 16.2998C17.6133 17.9863 17.8509 18.2283 18.1885 18.4903C19.4091 19.4384 20.8823 19.9449 22.5606 19.9948C24.6365 20.0596 26.7175 19.3835 28.4683 18.0762C30.2342 16.7613 31.4497 14.9201 31.8649 12.9416C31.975 12.4077 32 12.1557 32 11.5095C32 11.0379 31.99 10.8184 31.9575 10.6113C31.7374 9.22662 31.1971 8.11388 30.2767 7.15333C30.1666 7.03606 29.0011 5.90586 27.688 4.63594C24.524 1.57964 24.6541 1.70439 24.4114 1.50978C23.0033 0.387063 21.0674 -0.149348 19.0714 0.0327821ZM20.322 0.596637C21.295 0.661506 22.1354 0.878565 22.9232 1.26528C23.571 1.58463 23.9787 1.86905 24.509 2.37802C24.9642 2.80964 27.2578 5.02515 27.5354 5.29959L27.773 5.53162L27.4354 5.42184C27.0477 5.29709 26.5274 5.17983 26.1122 5.12245C25.7221 5.06756 24.7366 5.04511 24.3089 5.08253C23.2309 5.17484 22.1579 5.45677 21.1724 5.90087C20.9748 5.99069 6.68313 13.7774 5.5401 14.4186L5.41254 14.4909L3.16398 12.0808C1.9259 10.756 0.882914 9.63579 0.842895 9.58838L0.775363 9.50605L4.51962 7.54004C6.58058 6.45973 10.0447 4.64342 12.2182 3.50074C14.3917 2.36056 16.2901 1.37506 16.4377 1.31019C17.3331 0.913494 18.3861 0.654021 19.3391 0.596637C19.8243 0.566698 19.9068 0.566698 20.322 0.596637ZM25.9747 5.69379C27.9581 5.96574 29.5163 6.88637 30.4993 8.36586C31.1571 9.35635 31.4898 10.6238 31.4122 11.8613C31.2246 14.9151 28.9361 17.7418 25.7121 18.902C24.0538 19.4983 22.2204 19.5756 20.6847 19.1165C18.4086 18.4304 16.8429 16.7264 16.4727 14.5284C16.4252 14.2439 16.3827 13.7849 16.3827 13.5478C16.3827 13.4181 16.3702 13.3408 16.3402 13.2909C16.2876 13.2035 16.1501 13.1337 16.06 13.1511C16.025 13.1586 13.6739 14.451 10.8351 16.0228C7.99625 17.5946 5.67016 18.882 5.66265 18.882C5.65765 18.882 5.65515 18.0113 5.65765 16.9484L5.66516 15.0124L6.35298 14.6356C16.6178 9.02702 21.2199 6.51712 21.4225 6.4273C22.4005 5.9857 23.3985 5.73371 24.499 5.64888C24.7616 5.62892 25.7121 5.65886 25.9747 5.69379ZM1.78584 11.6342C2.20603 12.0858 2.54119 12.4625 2.53119 12.4725C2.50117 12.5 0.830389 13.3932 0.807879 13.3932C0.797874 13.3932 0.787869 12.7594 0.787869 11.9835V10.5739L0.905424 10.6936C0.970455 10.7585 1.36564 11.1802 1.78584 11.6342ZM3.92434 13.9296L4.85227 14.9275V16.5967C4.85227 17.5896 4.84227 18.2583 4.82976 18.2433C4.34454 17.7343 0.877912 14.0319 0.882914 14.0269C0.91793 13.9919 2.94638 12.9191 2.96639 12.9241C2.9814 12.9291 3.4116 13.3807 3.92434 13.9296ZM15.8299 14.0718C15.8424 14.4011 16.0125 15.2494 16.1201 15.5263C16.1376 15.5712 16.1351 15.5712 16.1 15.5388C16.0025 15.4465 15.0095 14.3812 15.0145 14.3762C15.032 14.3612 15.7974 13.942 15.8099 13.942C15.8174 13.942 15.8249 14.0019 15.8299 14.0718Z" fill="black"/>
<path d="M16.758 1.67701C16.6629 1.70945 14.8696 2.64754 14.8046 2.69744C14.7395 2.74734 14.707 2.82967 14.707 2.93945C14.707 3.03176 14.7245 3.05921 14.9146 3.25631C15.5274 3.90249 17.941 6.38495 17.9986 6.42986C18.1336 6.53465 18.1762 6.51968 19.2216 5.97079C19.7594 5.69136 20.2221 5.43189 20.2546 5.39696C20.2921 5.35205 20.3097 5.29966 20.3097 5.2273C20.3097 5.15745 20.2896 5.09507 20.2546 5.04268C20.1646 4.92043 17.0581 1.72442 16.9981 1.69697C16.9031 1.64957 16.8455 1.64458 16.758 1.67701ZM18.3587 3.91247C18.999 4.57114 19.5243 5.12002 19.5293 5.13C19.5343 5.14747 18.2587 5.83357 18.2262 5.83357C18.1912 5.83357 15.4799 3.00681 15.4974 2.98935C15.5099 2.97687 15.8075 2.8147 16.1577 2.63008L16.7955 2.29326L16.9956 2.50284C17.1057 2.6176 17.7184 3.25132 18.3587 3.91247Z" fill="black"/>
</svg>
